<?xml version="1.0" standalone="no"?>
<!DOCTYPE svg PUBLIC "-//W3C//DTD SVG 20010904//EN"
 "http://www.w3.org/TR/2001/REC-SVG-20010904/DTD/svg10.dtd">
<svg version="1.0" xmlns="http://www.w3.org/2000/svg"
 width="48.000000pt" height="48.000000pt" viewBox="0 0 48.000000 48.000000"
 preserveAspectRatio="xMidYMid meet" style="fill: white; stroke: black;">

<g transform="translate(0.000000,48.000000) scale(0.100000,-0.100000)"
fill="#000000" stroke="none">
<path d="M222 455 c-10 -21 -8 -26 17 -45 16 -11 34 -20 41 -20 6 0 18 -16 26
-37 20 -47 11 -97 -22 -120 -14 -10 -37 -30 -51 -45 -31 -33 -44 -35 -68 -8
-10 11 -27 20 -37 20 -34 0 -59 20 -80 63 l-19 42 5 -75 c9 -133 49 -207 108
-198 21 3 23 8 23 53 0 28 5 52 10 55 14 7 18 -56 6 -91 -9 -27 -8 -31 14 -39
38 -15 82 6 111 53 14 23 23 34 20 25 -4 -13 1 -19 18 -24 58 -14 92 41 101
166 7 99 -8 141 -66 175 l-34 19 32 -32 c43 -43 51 -91 27 -150 -22 -53 -47
-69 -41 -27 7 58 -11 137 -39 166 -14 15 -24 34 -21 42 8 22 -21 57 -47 57
-15 0 -27 -9 -34 -25z"/>
<path d="M46 441 c-37 -41 3 -87 47 -55 31 22 33 36 11 58 -21 21 -37 20 -58
-3z"/>
<path d="M214 306 c-8 -20 13 -56 32 -56 23 0 28 29 9 50 -21 24 -34 25 -41 6z"/>
<path d="M111 278 c-6 -15 -5 -28 2 -37 9 -11 14 -9 29 9 21 26 19 44 -5 48
-11 2 -21 -6 -26 -20z"/>
<path d="M175 210 c-3 -5 -2 -10 4 -10 6 0 8 -7 4 -16 -4 -12 -1 -15 12 -13
26 6 31 49 6 49 -11 0 -23 -4 -26 -10z"/>
</g>
</svg>
